<svg width="120" height="40" viewBox="0 0 120 40" fill="none" xmlns="http://www.w3.org/2000/svg">
<rect width="120" height="40" fill="#DFDDDE"/>
<path d="M29.87 23.15C29.15 23.15 28.5333 22.9933 28.02 22.68C27.5067 22.3633 27.1117 21.9233 26.835 21.36C26.5617 20.7967 26.425 20.1433 26.425 19.4C26.425 18.6567 26.5617 18.0033 26.835 17.44C27.1117 16.8767 27.5067 16.4383 28.02 16.125C28.5333 15.8083 29.15 15.65 29.87 15.65C30.7 15.65 31.3917 15.8583 31.945 16.275C32.4983 16.6883 32.8867 17.2467 33.11 17.95L31.895 18.285C31.755 17.815 31.5167 17.4483 31.18 17.185C30.8433 16.9183 30.4067 16.785 29.87 16.785C29.3867 16.785 28.9833 16.8933 28.66 17.11C28.34 17.3267 28.0983 17.6317 27.935 18.025C27.775 18.415 27.6933 18.8733 27.69 19.4C27.69 19.9267 27.77 20.3867 27.93 20.78C28.0933 21.17 28.3367 21.4733 28.66 21.69C28.9833 21.9067 29.3867 22.015 29.87 22.015C30.4067 22.015 30.8433 21.8817 31.18 21.615C31.5167 21.3483 31.755 20.9817 31.895 20.515L33.11 20.85C32.8867 21.5533 32.4983 22.1133 31.945 22.53C31.3917 22.9433 30.7 23.15 29.87 23.15ZM34.7078 23V15.8H35.9128V21.87H39.0928V23H34.7078ZM40.4398 23V15.8H41.6448V23H40.4398ZM43.5426 23V15.8H48.1926V16.93H44.7476V18.705H47.5926V19.835H44.7476V21.87H48.1926V23H43.5426ZM49.7922 23V15.8H51.0122L54.3522 20.875V15.8H55.5722V23H54.3522L51.0122 17.925V23H49.7922ZM59.0999 23V16.93H56.7699V15.8H62.6349V16.93H60.3049V23H59.0999ZM66.0336 23V15.8H67.2386V21.87H70.4186V23H66.0336ZM74.5153 23.15C73.7953 23.15 73.1786 22.9933 72.6653 22.68C72.152 22.3633 71.757 21.9233 71.4803 21.36C71.207 20.7967 71.0703 20.1433 71.0703 19.4C71.0703 18.6567 71.207 18.0033 71.4803 17.44C71.757 16.8767 72.152 16.4383 72.6653 16.125C73.1786 15.8083 73.7953 15.65 74.5153 15.65C75.2353 15.65 75.852 15.8083 76.3653 16.125C76.882 16.4383 77.277 16.8767 77.5503 17.44C77.827 18.0033 77.9653 18.6567 77.9653 19.4C77.9653 20.1433 77.827 20.7967 77.5503 21.36C77.277 21.9233 76.882 22.3633 76.3653 22.68C75.852 22.9933 75.2353 23.15 74.5153 23.15ZM74.5153 22.015C74.9986 22.0183 75.4003 21.9117 75.7203 21.695C76.0436 21.4783 76.2853 21.1733 76.4453 20.78C76.6086 20.3867 76.6903 19.9267 76.6903 19.4C76.6903 18.8733 76.6086 18.4167 76.4453 18.03C76.2853 17.64 76.0436 17.3367 75.7203 17.12C75.4003 16.9033 74.9986 16.7917 74.5153 16.785C74.032 16.7817 73.6303 16.8883 73.3103 17.105C72.9903 17.3217 72.7486 17.6267 72.5853 18.02C72.4253 18.4133 72.3453 18.8733 72.3453 19.4C72.3453 19.9267 72.4253 20.385 72.5853 20.775C72.7453 21.1617 72.9853 21.4633 73.3053 21.68C73.6286 21.8967 74.032 22.0083 74.5153 22.015ZM82.3305 23.15C81.8639 23.15 81.4255 23.0683 81.0155 22.905C80.6089 22.7383 80.2505 22.495 79.9405 22.175C79.6339 21.855 79.3939 21.4633 79.2205 21C79.0472 20.5333 78.9605 20 78.9605 19.4C78.9605 18.6133 79.1072 17.9417 79.4005 17.385C79.6939 16.825 80.0955 16.3967 80.6055 16.1C81.1155 15.8 81.6905 15.65 82.3305 15.65C83.2172 15.65 83.9189 15.8567 84.4355 16.27C84.9555 16.68 85.3072 17.2567 85.4905 18L84.2605 18.195C84.1239 17.7683 83.9005 17.4283 83.5905 17.175C83.2805 16.9183 82.8855 16.79 82.4055 16.79C81.9222 16.7833 81.5205 16.8883 81.2005 17.105C80.8805 17.3217 80.6389 17.6267 80.4755 18.02C80.3155 18.4133 80.2355 18.8733 80.2355 19.4C80.2355 19.9267 80.3155 20.385 80.4755 20.775C80.6355 21.1617 80.8755 21.4633 81.1955 21.68C81.5189 21.8967 81.9222 22.0083 82.4055 22.015C82.7689 22.0183 83.0872 21.9533 83.3605 21.82C83.6339 21.6833 83.8572 21.4783 84.0305 21.205C84.2039 20.9283 84.3205 20.5833 84.3805 20.17H83.1105V19.225H85.6605C85.6672 19.2783 85.6722 19.3567 85.6755 19.46C85.6789 19.5633 85.6805 19.625 85.6805 19.645C85.6805 20.325 85.5455 20.93 85.2755 21.46C85.0089 21.9867 84.6255 22.4 84.1255 22.7C83.6255 23 83.0272 23.15 82.3305 23.15ZM90.1298 23.15C89.4098 23.15 88.7931 22.9933 88.2798 22.68C87.7664 22.3633 87.3714 21.9233 87.0948 21.36C86.8214 20.7967 86.6848 20.1433 86.6848 19.4C86.6848 18.6567 86.8214 18.0033 87.0948 17.44C87.3714 16.8767 87.7664 16.4383 88.2798 16.125C88.7931 15.8083 89.4098 15.65 90.1298 15.65C90.8498 15.65 91.4664 15.8083 91.9798 16.125C92.4964 16.4383 92.8914 16.8767 93.1648 17.44C93.4414 18.0033 93.5798 18.6567 93.5798 19.4C93.5798 20.1433 93.4414 20.7967 93.1648 21.36C92.8914 21.9233 92.4964 22.3633 91.9798 22.68C91.4664 22.9933 90.8498 23.15 90.1298 23.15ZM90.1298 22.015C90.6131 22.0183 91.0148 21.9117 91.3348 21.695C91.6581 21.4783 91.8998 21.1733 92.0598 20.78C92.2231 20.3867 92.3048 19.9267 92.3048 19.4C92.3048 18.8733 92.2231 18.4167 92.0598 18.03C91.8998 17.64 91.6581 17.3367 91.3348 17.12C91.0148 16.9033 90.6131 16.7917 90.1298 16.785C89.6464 16.7817 89.2448 16.8883 88.9248 17.105C88.6048 17.3217 88.3631 17.6267 88.1998 18.02C88.0398 18.4133 87.9598 18.8733 87.9598 19.4C87.9598 19.9267 88.0398 20.385 88.1998 20.775C88.3598 21.1617 88.5998 21.4633 88.9198 21.68C89.2431 21.8967 89.6464 22.0083 90.1298 22.015Z" fill="#B9B2B4"/>
</svg>
